<svg width="351" height="114" viewBox="0 0 351 114" fill="none" xmlns="http://www.w3.org/2000/svg">
<path d="M28.5803 104.37C28.5803 104.37 28.5803 103.897 28.5803 102.95V94.9073H38.0426C38.0426 94.9073 38.0426 95.387 38.0426 96.3464V104.37C38.0426 104.37 37.5629 104.37 36.6036 104.37H28.5803ZM19.1181 94.9073C19.1181 94.9073 19.1181 94.4342 19.1181 93.488V85.445H28.5803C28.5803 85.445 28.5803 85.9247 28.5803 86.8841V94.9073C28.5803 94.9073 28.1007 94.9073 27.1413 94.9073H19.1181ZM9.65577 85.445C9.65577 85.445 9.65577 84.9719 9.65577 84.0257V75.9828H19.1181C19.1181 75.9828 19.1181 76.4624 19.1181 77.4218V85.445C19.1181 85.445 18.6384 85.445 17.679 85.445H9.65577ZM0.193481 75.9828C0.193481 75.9828 0.193481 75.5096 0.193481 74.5634V66.5205H9.65577C9.65577 66.5205 9.65577 67.0001 9.65577 67.9595V75.9828C9.65577 75.9828 9.17609 75.9828 8.21671 75.9828H0.193481ZM9.65577 66.5205C9.65577 66.5205 9.65577 66.0473 9.65577 65.1011V57.0582H19.1181C19.1181 57.0582 19.1181 57.5379 19.1181 58.4972V66.5205C19.1181 66.5205 18.6384 66.5205 17.679 66.5205H9.65577ZM19.1181 57.0582C19.1181 57.0582 19.1181 56.5851 19.1181 55.6388V47.5959H28.5803C28.5803 47.5959 28.5803 48.0756 28.5803 49.0349V57.0582C28.5803 57.0582 28.1007 57.0582 27.1413 57.0582H19.1181ZM28.5803 47.5959C28.5803 47.5959 28.5803 47.1228 28.5803 46.1765V38.1336H38.0426C38.0426 38.1336 38.0426 38.6133 38.0426 39.5727V47.5959C38.0426 47.5959 37.5629 47.5959 36.6036 47.5959H28.5803Z" fill="white"/>
<path d="M61.7538 113.832C61.7538 113.832 61.7538 113.359 61.7538 112.413V104.37C61.7538 104.37 61.7538 103.897 61.7538 102.95V94.9073C61.7538 94.9073 61.7538 94.4342 61.7538 93.488V85.445C61.7538 85.445 61.7538 84.9719 61.7538 84.0257V75.9828C61.7538 75.9828 61.7538 75.5096 61.7538 74.5634V66.5205C61.7538 66.5205 61.7538 66.0473 61.7538 65.1011V57.0582C61.7538 57.0582 61.7538 56.5851 61.7538 55.6388V47.5959C61.7538 47.5959 61.7538 47.1228 61.7538 46.1765V38.1336C61.7538 38.1336 61.7538 37.6605 61.7538 36.7143V28.6713C61.7538 28.6713 61.7538 28.1982 61.7538 27.252V19.209C61.7538 19.209 61.7538 18.7359 61.7538 17.7897V9.74674C61.7538 9.74674 61.7538 9.27362 61.7538 8.32739V0.284454H71.2161C71.2161 0.284454 71.2161 0.764139 71.2161 1.72351V9.74674C71.2161 9.74674 70.7364 9.74674 69.777 9.74674H71.2161C71.2161 9.74674 71.2161 10.2264 71.2161 11.1858V19.209C71.2161 19.209 70.7364 19.209 69.777 19.209H71.2161C71.2161 19.209 71.2161 19.6887 71.2161 20.6481V28.6713C71.2161 28.6713 70.7364 28.6713 69.777 28.6713H71.2161C71.2161 28.6713 71.2161 29.151 71.2161 30.1104V38.1336C71.2161 38.1336 70.7364 38.1336 69.777 38.1336H71.2161C71.2161 38.1336 71.2161 38.6133 71.2161 39.5727V47.5959C71.2161 47.5959 70.7364 47.5959 69.777 47.5959H71.2161C71.2161 47.5959 71.2161 48.0756 71.2161 49.0349V47.5959H80.6784C80.6784 47.5959 80.6784 48.0756 80.6784 49.0349V57.0582C80.6784 57.0582 80.1987 57.0582 79.2393 57.0582H71.2161C71.2161 57.0582 71.2161 56.5851 71.2161 55.6388V57.0582C71.2161 57.0582 70.7364 57.0582 69.777 57.0582H71.2161C71.2161 57.0582 71.2161 57.5379 71.2161 58.4972V66.5205C71.2161 66.5205 70.7364 66.5205 69.777 66.5205H71.2161C71.2161 66.5205 71.2161 67.0001 71.2161 67.9595V75.9828C71.2161 75.9828 70.7364 75.9828 69.777 75.9828H71.2161C71.2161 75.9828 71.2161 76.4624 71.2161 77.4218V85.445C71.2161 85.445 70.7364 85.445 69.777 85.445H71.2161C71.2161 85.445 71.2161 85.9247 71.2161 86.8841V94.9073C71.2161 94.9073 70.7364 94.9073 69.777 94.9073H71.2161C71.2161 94.9073 71.2161 95.387 71.2161 96.3464V104.37C71.2161 104.37 70.7364 104.37 69.777 104.37H71.2161C71.2161 104.37 71.2161 104.849 71.2161 105.809V113.832C71.2161 113.832 70.7364 113.832 69.777 113.832H61.7538ZM99.603 113.832C99.603 113.832 99.603 113.359 99.603 112.413V104.37C99.603 104.37 99.603 103.897 99.603 102.95V94.9073C99.603 94.9073 99.603 94.4342 99.603 93.488V85.445C99.603 85.445 99.603 84.9719 99.603 84.0257V75.9828C99.603 75.9828 99.603 75.5096 99.603 74.5634V66.5205C99.603 66.5205 99.603 66.0473 99.603 65.1011V57.0582C99.603 57.0582 99.603 56.5851 99.603 55.6388V47.5959H109.065C109.065 47.5959 109.065 48.0756 109.065 49.0349V57.0582C109.065 57.0582 108.586 57.0582 107.626 57.0582H109.065C109.065 57.0582 109.065 57.5379 109.065 58.4972V66.5205C109.065 66.5205 108.586 66.5205 107.626 66.5205H109.065C109.065 66.5205 109.065 67.0001 109.065 67.9595V75.9828C109.065 75.9828 108.586 75.9828 107.626 75.9828H109.065C109.065 75.9828 109.065 76.4624 109.065 77.4218V85.445C109.065 85.445 108.586 85.445 107.626 85.445H109.065C109.065 85.445 109.065 85.9247 109.065 86.8841V94.9073C109.065 94.9073 108.586 94.9073 107.626 94.9073H109.065C109.065 94.9073 109.065 95.387 109.065 96.3464V104.37C109.065 104.37 108.586 104.37 107.626 104.37H109.065C109.065 104.37 109.065 104.849 109.065 105.809V113.832C109.065 113.832 108.586 113.832 107.626 113.832H99.603ZM80.6784 47.5959C80.6784 47.5959 80.6784 47.1228 80.6784 46.1765V38.1336H90.1407C90.1407 38.1336 90.1407 38.6133 90.1407 39.5727V38.1336H99.603C99.603 38.1336 99.603 38.6133 99.603 39.5727V47.5959C99.603 47.5959 99.1233 47.5959 98.1639 47.5959H90.1407C90.1407 47.5959 90.1407 47.1228 90.1407 46.1765V47.5959C90.1407 47.5959 89.661 47.5959 88.7016 47.5959H80.6784Z" fill="#4BBAFF"/>
<path d="M142.239 113.832C142.239 113.832 142.239 113.359 142.239 112.413V104.37H151.701C151.701 104.37 151.701 104.849 151.701 105.809V104.37H161.163C161.163 104.37 161.163 104.849 161.163 105.809V113.832C161.163 113.832 160.684 113.832 159.724 113.832H151.701C151.701 113.832 151.701 113.359 151.701 112.413V113.832C151.701 113.832 151.221 113.832 150.262 113.832H142.239ZM123.314 47.5959C123.314 47.5959 123.314 47.1228 123.314 46.1765V38.1336H132.776C132.776 38.1336 132.776 38.6133 132.776 39.5727V38.1336C132.776 38.1336 132.776 37.6605 132.776 36.7143V28.6713C132.776 28.6713 132.776 28.1982 132.776 27.252V19.209H142.239C142.239 19.209 142.239 19.6887 142.239 20.6481V28.6713C142.239 28.6713 141.759 28.6713 140.8 28.6713H142.239C142.239 28.6713 142.239 29.151 142.239 30.1104V38.1336C142.239 38.1336 141.759 38.1336 140.8 38.1336H142.239C142.239 38.1336 142.239 38.6133 142.239 39.5727V38.1336H151.701C151.701 38.1336 151.701 38.6133 151.701 39.5727V38.1336H161.163C161.163 38.1336 161.163 38.6133 161.163 39.5727V47.5959C161.163 47.5959 160.684 47.5959 159.724 47.5959H151.701C151.701 47.5959 151.701 47.1228 151.701 46.1765V47.5959C151.701 47.5959 151.221 47.5959 150.262 47.5959H142.239C142.239 47.5959 142.239 47.1228 142.239 46.1765V47.5959C142.239 47.5959 141.759 47.5959 140.8 47.5959H142.239C142.239 47.5959 142.239 48.0756 142.239 49.0349V57.0582C142.239 57.0582 141.759 57.0582 140.8 57.0582H142.239C142.239 57.0582 142.239 57.5379 142.239 58.4972V66.5205C142.239 66.5205 141.759 66.5205 140.8 66.5205H142.239C142.239 66.5205 142.239 67.0001 142.239 67.9595V75.9828C142.239 75.9828 141.759 75.9828 140.8 75.9828H142.239C142.239 75.9828 142.239 76.4624 142.239 77.4218V85.445C142.239 85.445 141.759 85.445 140.8 85.445H142.239C142.239 85.445 142.239 85.9247 142.239 86.8841V94.9073C142.239 94.9073 141.759 94.9073 140.8 94.9073H142.239C142.239 94.9073 142.239 95.387 142.239 96.3464V104.37C142.239 104.37 141.759 104.37 140.8 104.37H132.776C132.776 104.37 132.776 103.897 132.776 102.95V94.9073C132.776 94.9073 132.776 94.4342 132.776 93.488V85.445C132.776 85.445 132.776 84.9719 132.776 84.0257V75.9828C132.776 75.9828 132.776 75.5096 132.776 74.5634V66.5205C132.776 66.5205 132.776 66.0473 132.776 65.1011V57.0582C132.776 57.0582 132.776 56.5851 132.776 55.6388V47.5959C132.776 47.5959 132.776 47.1228 132.776 46.1765V47.5959C132.776 47.5959 132.297 47.5959 131.337 47.5959H123.314Z" fill="#4BBAFF"/>
<path d="M175.329 113.832C175.329 113.832 175.329 113.359 175.329 112.413V104.37C175.329 104.37 175.329 103.897 175.329 102.95V94.9073C175.329 94.9073 175.329 94.4342 175.329 93.488V85.445C175.329 85.445 175.329 84.9719 175.329 84.0257V75.9828C175.329 75.9828 175.329 75.5096 175.329 74.5634V66.5205C175.329 66.5205 175.329 66.0473 175.329 65.1011V57.0582C175.329 57.0582 175.329 56.5851 175.329 55.6388V47.5959C175.329 47.5959 175.329 47.1228 175.329 46.1765V38.1336H184.791C184.791 38.1336 184.791 38.6133 184.791 39.5727V47.5959C184.791 47.5959 184.312 47.5959 183.352 47.5959H184.791C184.791 47.5959 184.791 48.0756 184.791 49.0349V47.5959H194.254C194.254 47.5959 194.254 48.0756 194.254 49.0349V57.0582C194.254 57.0582 193.774 57.0582 192.814 57.0582H184.791C184.791 57.0582 184.791 56.5851 184.791 55.6388V57.0582C184.791 57.0582 184.312 57.0582 183.352 57.0582H184.791C184.791 57.0582 184.791 57.5379 184.791 58.4972V66.5205C184.791 66.5205 184.312 66.5205 183.352 66.5205H184.791C184.791 66.5205 184.791 67.0001 184.791 67.9595V75.9828C184.791 75.9828 184.312 75.9828 183.352 75.9828H184.791C184.791 75.9828 184.791 76.4624 184.791 77.4218V85.445C184.791 85.445 184.312 85.445 183.352 85.445H184.791C184.791 85.445 184.791 85.9247 184.791 86.8841V94.9073C184.791 94.9073 184.312 94.9073 183.352 94.9073H184.791C184.791 94.9073 184.791 95.387 184.791 96.3464V104.37C184.791 104.37 184.312 104.37 183.352 104.37H184.791C184.791 104.37 184.791 104.849 184.791 105.809V113.832C184.791 113.832 184.312 113.832 183.352 113.832H175.329ZM213.178 113.832C213.178 113.832 213.178 113.359 213.178 112.413V104.37C213.178 104.37 213.178 103.897 213.178 102.95V94.9073C213.178 94.9073 213.178 94.4342 213.178 93.488V85.445C213.178 85.445 213.178 84.9719 213.178 84.0257V75.9828C213.178 75.9828 213.178 75.5096 213.178 74.5634V66.5205C213.178 66.5205 213.178 66.0473 213.178 65.1011V57.0582C213.178 57.0582 213.178 56.5851 213.178 55.6388V47.5959H222.64C222.64 47.5959 222.64 48.0756 222.64 49.0349V47.5959H232.103C232.103 47.5959 232.103 48.0756 232.103 49.0349V57.0582C232.103 57.0582 231.623 57.0582 230.664 57.0582H222.64C222.64 57.0582 222.64 56.5851 222.64 55.6388V57.0582C222.64 57.0582 222.161 57.0582 221.201 57.0582H222.64C222.64 57.0582 222.64 57.5379 222.64 58.4972V66.5205C222.64 66.5205 222.161 66.5205 221.201 66.5205H222.64C222.64 66.5205 222.64 67.0001 222.64 67.9595V75.9828C222.64 75.9828 222.161 75.9828 221.201 75.9828H222.64C222.64 75.9828 222.64 76.4624 222.64 77.4218V85.445C222.64 85.445 222.161 85.445 221.201 85.445H222.64C222.64 85.445 222.64 85.9247 222.64 86.8841V94.9073C222.64 94.9073 222.161 94.9073 221.201 94.9073H222.64C222.64 94.9073 222.64 95.387 222.64 96.3464V104.37C222.64 104.37 222.161 104.37 221.201 104.37H222.64C222.64 104.37 222.64 104.849 222.64 105.809V113.832C222.64 113.832 222.161 113.832 221.201 113.832H213.178ZM251.027 113.832C251.027 113.832 251.027 113.359 251.027 112.413V104.37C251.027 104.37 251.027 103.897 251.027 102.95V94.9073C251.027 94.9073 251.027 94.4342 251.027 93.488V85.445C251.027 85.445 251.027 84.9719 251.027 84.0257V75.9828C251.027 75.9828 251.027 75.5096 251.027 74.5634V66.5205C251.027 66.5205 251.027 66.0473 251.027 65.1011V57.0582C251.027 57.0582 251.027 56.5851 251.027 55.6388V47.5959H260.49C260.49 47.5959 260.49 48.0756 260.49 49.0349V57.0582C260.49 57.0582 260.01 57.0582 259.051 57.0582H260.49C260.49 57.0582 260.49 57.5379 260.49 58.4972V66.5205C260.49 66.5205 260.01 66.5205 259.051 66.5205H260.49C260.49 66.5205 260.49 67.0001 260.49 67.9595V75.9828C260.49 75.9828 260.01 75.9828 259.051 75.9828H260.49C260.49 75.9828 260.49 76.4624 260.49 77.4218V85.445C260.49 85.445 260.01 85.445 259.051 85.445H260.49C260.49 85.445 260.49 85.9247 260.49 86.8841V94.9073C260.49 94.9073 260.01 94.9073 259.051 94.9073H260.49C260.49 94.9073 260.49 95.387 260.49 96.3464V104.37C260.49 104.37 260.01 104.37 259.051 104.37H260.49C260.49 104.37 260.49 104.849 260.49 105.809V113.832C260.49 113.832 260.01 113.832 259.051 113.832H251.027ZM194.254 47.5959C194.254 47.5959 194.254 47.1228 194.254 46.1765V38.1336H203.716C203.716 38.1336 203.716 38.6133 203.716 39.5727V38.1336H213.178C213.178 38.1336 213.178 38.6133 213.178 39.5727V47.5959C213.178 47.5959 212.698 47.5959 211.739 47.5959H203.716C203.716 47.5959 203.716 47.1228 203.716 46.1765V47.5959C203.716 47.5959 203.236 47.5959 202.277 47.5959H194.254ZM232.103 47.5959C232.103 47.5959 232.103 47.1228 232.103 46.1765V38.1336H241.565C241.565 38.1336 241.565 38.6133 241.565 39.5727V38.1336H251.027C251.027 38.1336 251.027 38.6133 251.027 39.5727V47.5959C251.027 47.5959 250.548 47.5959 249.588 47.5959H241.565C241.565 47.5959 241.565 47.1228 241.565 46.1765V47.5959C241.565 47.5959 241.085 47.5959 240.126 47.5959H232.103Z" fill="#4BBAFF"/>
<path d="M279.479 113.832C279.479 113.832 279.479 113.359 279.479 112.413V104.37C279.479 104.37 279.479 103.897 279.479 102.95V94.9073C279.479 94.9073 279.479 94.4342 279.479 93.488V85.445C279.479 85.445 279.479 84.9719 279.479 84.0257V75.9828C279.479 75.9828 279.479 75.5096 279.479 74.5634V66.5205C279.479 66.5205 279.479 66.0473 279.479 65.1011V57.0582C279.479 57.0582 279.479 56.5851 279.479 55.6388V47.5959C279.479 47.5959 279.479 47.1228 279.479 46.1765V38.1336C279.479 38.1336 279.479 37.6605 279.479 36.7143V28.6713C279.479 28.6713 279.479 28.1982 279.479 27.252V19.209C279.479 19.209 279.479 18.7359 279.479 17.7897V9.74674C279.479 9.74674 279.479 9.27362 279.479 8.32739V0.284454H288.941C288.941 0.284454 288.941 0.764139 288.941 1.72351V9.74674C288.941 9.74674 288.461 9.74674 287.502 9.74674H288.941C288.941 9.74674 288.941 10.2264 288.941 11.1858V19.209C288.941 19.209 288.461 19.209 287.502 19.209H288.941C288.941 19.209 288.941 19.6887 288.941 20.6481V28.6713C288.941 28.6713 288.461 28.6713 287.502 28.6713H288.941C288.941 28.6713 288.941 29.151 288.941 30.1104V38.1336C288.941 38.1336 288.461 38.1336 287.502 38.1336H288.941C288.941 38.1336 288.941 38.6133 288.941 39.5727V47.5959C288.941 47.5959 288.461 47.5959 287.502 47.5959H288.941C288.941 47.5959 288.941 48.0756 288.941 49.0349V57.0582C288.941 57.0582 288.461 57.0582 287.502 57.0582H288.941C288.941 57.0582 288.941 57.5379 288.941 58.4972V66.5205C288.941 66.5205 288.461 66.5205 287.502 66.5205H288.941C288.941 66.5205 288.941 67.0001 288.941 67.9595V75.9828C288.941 75.9828 288.461 75.9828 287.502 75.9828H288.941C288.941 75.9828 288.941 76.4624 288.941 77.4218V85.445C288.941 85.445 288.461 85.445 287.502 85.445H288.941C288.941 85.445 288.941 85.9247 288.941 86.8841V94.9073C288.941 94.9073 288.461 94.9073 287.502 94.9073H288.941C288.941 94.9073 288.941 95.387 288.941 96.3464V104.37C288.941 104.37 288.461 104.37 287.502 104.37H288.941C288.941 104.37 288.941 104.849 288.941 105.809V113.832C288.941 113.832 288.461 113.832 287.502 113.832H279.479Z" fill="#4BBAFF"/>
<path d="M312.643 104.37C312.643 104.37 312.643 103.897 312.643 102.95V94.9073H322.105C322.105 94.9073 322.105 95.387 322.105 96.3464V104.37C322.105 104.37 321.626 104.37 320.666 104.37H312.643ZM322.105 94.9073C322.105 94.9073 322.105 94.4342 322.105 93.488V85.445H331.568C331.568 85.445 331.568 85.9247 331.568 86.8841V94.9073C331.568 94.9073 331.088 94.9073 330.129 94.9073H322.105ZM331.568 85.445C331.568 85.445 331.568 84.9719 331.568 84.0257V75.9828H341.03C341.03 75.9828 341.03 76.4624 341.03 77.4218V85.445C341.03 85.445 340.55 85.445 339.591 85.445H331.568ZM341.03 75.9828C341.03 75.9828 341.03 75.5096 341.03 74.5634V66.5205H350.492C350.492 66.5205 350.492 67.0001 350.492 67.9595V75.9828C350.492 75.9828 350.013 75.9828 349.053 75.9828H341.03ZM331.568 66.5205C331.568 66.5205 331.568 66.0473 331.568 65.1011V57.0582H341.03C341.03 57.0582 341.03 57.5379 341.03 58.4972V66.5205C341.03 66.5205 340.55 66.5205 339.591 66.5205H331.568ZM322.105 57.0582C322.105 57.0582 322.105 56.5851 322.105 55.6388V47.5959H331.568C331.568 47.5959 331.568 48.0756 331.568 49.0349V57.0582C331.568 57.0582 331.088 57.0582 330.129 57.0582H322.105ZM312.643 47.5959C312.643 47.5959 312.643 47.1228 312.643 46.1765V38.1336H322.105C322.105 38.1336 322.105 38.6133 322.105 39.5727V47.5959C322.105 47.5959 321.626 47.5959 320.666 47.5959H312.643Z" fill="white"/>
</svg>
